<?xml version="1.0" encoding="UTF-8"?>
<svg id="FLAGS" xmlns="http://www.w3.org/2000/svg" viewBox="0 0 31 21">
  <defs>
    <style>
      .cls-1 {
        fill: #339e35;
      }

      .cls-2 {
        fill: #ce1126;
      }
    </style>
  </defs>
  <rect class="cls-2" x="-.32" y="6.98" width="31.65" height="7.04"/>
  <rect x="-.32" y="-.05" width="31.65" height="7.04"/>
  <rect class="cls-1" x="-.32" y="14.02" width="31.65" height="7.04" transform="translate(31 35.07) rotate(180)"/>
  <g>
    <path class="cls-2" d="M16.92,3.61s.87-1.55.87-1.55c.04-.06.01-.14-.05-.18-.06-.04-.14-.01-.18.05,0,.02-.64,1.66-.64,1.66v.02Z"/>
    <path class="cls-2" d="M17.43,3.91s1.12-1.37,1.12-1.37c.05-.06.04-.14-.02-.19-.06-.05-.14-.04-.19.02-.01.01-.92,1.52-.92,1.52v.02Z"/>
    <path class="cls-2" d="M17.18,3.74s1-1.47,1-1.47c.04-.06.02-.14-.04-.18-.06-.04-.14-.02-.18.04,0,.02-.78,1.6-.78,1.6v.02Z"/>
    <path class="cls-2" d="M17.66,4.09s1.24-1.27,1.24-1.27c.05-.05.05-.14,0-.19-.05-.05-.14-.05-.19,0-.01.01-1.05,1.44-1.05,1.44v.02Z"/>
    <path class="cls-2" d="M16.09,3.33s.44-1.72.44-1.72c.02-.07-.03-.14-.1-.16-.07-.02-.14.03-.16.1,0,.02-.19,1.77-.19,1.77h.01Z"/>
    <path class="cls-2" d="M17.87,4.29s1.34-1.16,1.34-1.16c.05-.05.06-.13.01-.19-.05-.05-.13-.06-.19-.01-.01.01-1.17,1.34-1.17,1.34v.02Z"/>
    <path class="cls-2" d="M16.65,3.49s.73-1.62.73-1.62c.03-.07,0-.14-.07-.17-.07-.03-.14,0-.17.07,0,.02-.5,1.71-.5,1.71v.02Z"/>
    <path class="cls-2" d="M16.37,3.4s.58-1.68.58-1.68c.02-.07-.01-.14-.08-.17-.07-.02-.14.01-.17.08,0,.02-.34,1.75-.34,1.75h0Z"/>
    <path class="cls-2" d="M18.53,5.26s1.66-.63,1.66-.63c.07-.03.1-.1.08-.17-.03-.07-.1-.1-.17-.08-.02,0-1.56.86-1.56.86v.02Z"/>
    <path class="cls-2" d="M20.4,5.22l-1.67.57s1.74-.32,1.74-.32c.07-.01.12-.08.1-.16-.01-.07-.08-.12-.16-.1h-.02Z"/>
    <path class="cls-2" d="M20.51,5.66l-.64.16h.79c0-.12-.06-.17-.13-.16h-.02Z"/>
    <path class="cls-2" d="M18.65,5.51s1.7-.47,1.7-.47c.07-.02.11-.09.09-.16-.02-.07-.09-.11-.16-.09-.02,0-1.63.72-1.63.72Z"/>
    <path class="cls-2" d="M15.5,3.66c-1.39,0-2.58.91-2.99,2.16h5.99c-.42-1.25-1.6-2.16-2.99-2.16Z"/>
    <path class="cls-2" d="M15.81,3.28l.27-1.74c.01-.07-.04-.14-.11-.15-.07-.01-.14.04-.15.11,0,.02-.04,1.78-.04,1.78.01.01.02,0,.02,0Z"/>
    <path class="cls-2" d="M18.25,4.74s1.53-.91,1.53-.91c.06-.04.08-.12.04-.18-.04-.06-.12-.08-.18-.04-.01.01-1.39,1.12-1.39,1.12v.02Z"/>
    <path class="cls-2" d="M18.07,4.51s1.44-1.04,1.44-1.04c.06-.04.07-.13.03-.18-.04-.06-.13-.07-.18-.03-.01.01-1.28,1.23-1.28,1.23v.02Z"/>
    <path class="cls-2" d="M18.4,4.99s1.6-.77,1.6-.77c.07-.03.09-.11.06-.18-.03-.07-.11-.09-.18-.06-.02,0-1.48.99-1.48.99v.02Z"/>
    <path class="cls-2" d="M13.33,4.09s-1.02-1.44-1.02-1.44c-.06-.07-.15-.07-.2-.02s-.05.13,0,.19l1.22,1.27Z"/>
    <path class="cls-2" d="M15.5,3.27s.13-1.77.13-1.77c-.26,0-.14,1.76-.14,1.76h.01Z"/>
    <path class="cls-2" d="M12.74,4.75s-1.36-1.13-1.36-1.13c-.08-.05-.16-.03-.2.03-.04.06-.02.14.04.18l1.51.91Z"/>
    <path class="cls-2" d="M12.91,4.51s-1.25-1.24-1.25-1.24c-.07-.05-.16-.04-.2.02s-.03.14.03.18l1.42,1.04Z"/>
    <path class="cls-2" d="M13.11,4.29s-1.14-1.35-1.14-1.35c-.07-.06-.15-.06-.2,0-.05.06-.04.14.01.19l1.33,1.16Z"/>
    <path class="cls-2" d="M10.65,5.05l1.69.49s-1.6-.74-1.6-.74c-.09-.03-.16.01-.18.08-.02.07.02.14.09.16Z"/>
    <path class="cls-2" d="M10.53,5.48l1.73.34s-1.66-.59-1.66-.59c-.09-.02-.16.03-.17.1-.01.07.03.14.1.16Z"/>
    <path class="cls-2" d="M10.81,4.63l1.64.63s-1.53-.87-1.53-.87c-.08-.03-.16,0-.19.07-.03.07,0,.14.08.17Z"/>
    <path class="cls-2" d="M11.13,5.82l-.64-.16c-.09-.01-.16.04-.16.11.01.04.8.04.8.04Z"/>
    <path class="cls-2" d="M12.58,5s-1.45-1-1.45-1c-.08-.04-.16-.01-.19.05-.03.07,0,.14.06.18l1.58.78Z"/>
    <path class="cls-2" d="M14.91,3.33s-.18-1.77-.18-1.77c-.02-.09-.09-.13-.16-.11-.07.02-.11.09-.1.16l.42,1.71h.01Z"/>
    <path class="cls-2" d="M15.21,3.29s-.02-1.77-.02-1.77c-.01-.09-.08-.14-.15-.13s-.12.08-.11.15l.27,1.74h.01Z"/>
    <path class="cls-2" d="M13.56,3.9s-.89-1.52-.89-1.52c-.06-.07-.14-.08-.2-.03-.06.05-.07.13-.02.19l1.11,1.37Z"/>
    <path class="cls-2" d="M14.63,3.4s-.33-1.74-.33-1.74c-.03-.09-.1-.12-.17-.1-.07.02-.11.1-.08.17l.57,1.67h.01Z"/>
    <path class="cls-2" d="M13.8,3.74s-.75-1.6-.75-1.6c-.05-.08-.13-.09-.19-.05-.06.04-.08.12-.04.18l.98,1.46Z"/>
    <path class="cls-2" d="M14.33,3.48s-.47-1.7-.47-1.7c-.04-.08-.11-.11-.18-.08-.07.03-.1.11-.07.17l.71,1.61Z"/>
    <path class="cls-2" d="M14.06,3.6s-.61-1.65-.61-1.65c-.04-.08-.12-.1-.19-.07-.06.04-.09.12-.05.18l.85,1.54Z"/>
  </g>
</svg>