<?xml version="1.0" encoding="UTF-8"?>
<svg id="_레이어_1" data-name="레이어 1" xmlns="http://www.w3.org/2000/svg" viewBox="0 0 31 21">
  <defs>
    <style>
      .cls-1 {
        fill: #fff;
      }

      .cls-2 {
        fill: #002b82;
      }

      .cls-3 {
        fill: #d62234;
      }
    </style>
  </defs>
  <g>
    <rect class="cls-3" x="-.32" y="19.43" width="31.65" height="1.62"/>
    <rect class="cls-1" x="-.32" y="17.81" width="31.65" height="1.62"/>
    <rect class="cls-3" x="-.32" y="16.18" width="31.65" height="1.62"/>
    <rect class="cls-1" x="-.32" y="14.56" width="31.65" height="1.62"/>
    <rect class="cls-3" x="-.32" y="12.94" width="31.65" height="1.62"/>
    <rect class="cls-1" x="-.32" y="11.31" width="31.65" height="1.62"/>
    <rect class="cls-3" x="-.32" y="9.69" width="31.65" height="1.62"/>
    <rect class="cls-1" x="-.32" y="8.06" width="31.65" height="1.62"/>
    <rect class="cls-3" x="-.32" y="6.44" width="31.65" height="1.62"/>
    <rect class="cls-1" x="-.32" y="4.82" width="31.65" height="1.62"/>
    <rect class="cls-3" x="-.32" y="3.19" width="31.65" height="1.62"/>
    <rect class="cls-1" x="-.32" y="1.57" width="31.65" height="1.62"/>
    <rect class="cls-3" x="-.32" y="-.05" width="31.65" height="1.62"/>
  </g>
  <rect class="cls-2" x="-.32" y="-.05" width="16.24" height="11.37"/>
  <path class="cls-1" d="M8.06,4.36h.55l-.45.33.17.53-.45-.33-.45.33.17-.53-.45-.33h.55l.17-.53.17.53ZM12.03,3.17l-.17-.53-.17.53h-.55l.45.33-.17.53.45-.33.45.33-.17-.53.45-.33h-.55ZM10.6,3.84l-.17.53h-.55l.45.33-.17.53.45-.33.45.33-.17-.53.45-.33h-.55l-.17-.53ZM5.18,3.84l-.17.53h-.55l.45.33-.17.53.45-.33.45.33-.17-.53.45-.33h-.55l-.17-.53ZM9.15,2.64l-.17.53h-.55l.45.33-.17.53.45-.33.45.33-.17-.53.45-.33h-.55l-.17-.53ZM6.44,2.64l-.17.53h-.55l.45.33-.17.53.45-.33.45.33-.17-.53.45-.33h-.55l-.17-.53ZM9.32,5.47l-.17-.53-.17.53h-.55l.45.33-.17.53.45-.33.45.33-.17-.53.45-.33h-.55ZM3.73,2.64l-.17.53h-.55l.45.33-.17.53.45-.33.45.33-.17-.53.45-.33h-.55l-.17-.53ZM6.61,5.47l-.17-.53-.17.53h-.55l.45.33-.17.53.45-.33.45.33-.17-.53.45-.33h-.55ZM12.03,5.47l-.17-.53-.17.53h-.55l.45.33-.17.53.45-.33.45.33-.17-.53.45-.33h-.55ZM2.47,3.84l-.17.53h-.55l.45.33-.17.53.45-.33.45.33-.17-.53.45-.33h-.55l-.17-.53ZM3.9,5.47l-.17-.53-.17.53h-.55l.45.33-.17.53.45-.33.45.33-.17-.53.45-.33h-.55ZM6.61,7.76l-.17-.53-.17.53h-.55l.45.33-.17.53.45-.33.45.33-.17-.53.45-.33h-.55ZM13.48,4.36l-.17-.53-.17.53h-.55l.45.33-.17.53.45-.33.45.33-.17-.53.45-.33h-.55ZM13.48,6.72l-.17-.53-.17.53h-.55l.45.33-.17.53.45-.33.45.33-.17-.53.45-.33h-.55ZM14.12,1.72l.45-.33.45.33-.17-.53.45-.33h-.55l-.17-.53-.17.53h-.55l.45.33-.17.53ZM13.03,2.33l-.17.53.45-.33.45.33-.17-.53.45-.33h-.55l-.17-.53-.17.53h-.55l.45.33ZM12.03,7.76l-.17-.53-.17.53h-.55l.45.33-.17.53.45-.33.45.33-.17-.53.45-.33h-.55ZM9.32,7.76l-.17-.53-.17.53h-.55l.45.33-.17.53.45-.33.45.33-.17-.53.45-.33h-.55ZM3.9,7.76l-.17-.53-.17.53h-.55l.45.33-.17.53.45-.33.45.33-.17-.53.45-.33h-.55ZM5.35,6.72l-.17-.53-.17.53h-.55l.45.33-.17.53.45-.33.45.33-.17-.53.45-.33h-.55ZM10.77,6.72l-.17-.53-.17.53h-.55l.45.33-.17.53.45-.33.45.33-.17-.53.45-.33h-.55ZM2.64,6.72l-.17-.53-.17.53h-.55l.45.33-.17.53.45-.33.45.33-.17-.53.45-.33h-.55ZM8.06,6.72l-.17-.53-.17.53h-.55l.45.33-.17.53.45-.33.45.33-.17-.53.45-.33h-.55ZM11.41,1.72l.45-.33.45.33-.17-.53.45-.33h-.55l-.17-.53-.17.53h-.55l.45.33-.17.53ZM12.03,10.06l-.17-.53-.17.53h-.55l.45.33-.17.53.45-.33.45.33-.17-.53.45-.33h-.55ZM8.61,9.09h-.55l-.17-.53-.17.53h-.55l.45.33-.17.53.45-.33.45.33-.17-.53.45-.33ZM11.32,9.09h-.55l-.17-.53-.17.53h-.55l.45.33-.17.53.45-.33.45.33-.17-.53.45-.33ZM9.32,10.06l-.17-.53-.17.53h-.55l.45.33-.17.53.45-.33.45.33-.17-.53.45-.33h-.55ZM5.9,9.09h-.55l-.17-.53-.17.53h-.55l.45.33-.17.53.45-.33.45.33-.17-.53.45-.33ZM10.32,2.33l-.17.53.45-.33.45.33-.17-.53.45-.33h-.55l-.17-.53-.17.53h-.55l.45.33ZM14.03,9.09h-.55l-.17-.53-.17.53h-.55l.45.33-.17.53.45-.33.45.33-.17-.53.45-.33ZM14.57,2.64l-.17.53h-.55l.45.33-.17.53.45-.33.45.33-.17-.53.45-.33h-.55l-.17-.53ZM14.57,4.94l-.17.53h-.55l.45.33-.17.53.45-.33.45.33-.17-.53.45-.33h-.55l-.17-.53ZM3.9,10.06l-.17-.53-.17.53h-.55l.45.33-.17.53.45-.33.45.33-.17-.53.45-.33h-.55ZM14.74,10.06l-.17-.53-.17.53h-.55l.45.33-.17.53.45-.33.45.33-.17-.53.45-.33h-.55ZM14.57,7.24l-.17.53h-.55l.45.33-.17.53.45-.33.45.33-.17-.53.45-.33h-.55l-.17-.53ZM6.61,10.06l-.17-.53-.17.53h-.55l.45.33-.17.53.45-.33.45.33-.17-.53.45-.33h-.55ZM2.19,2.33l-.17.53.45-.33.45.33-.17-.53.45-.33h-.55l-.17-.53-.17.53h-.55l.45.33ZM3.28,1.72l.45-.33.45.33-.17-.53.45-.33h-.55l-.17-.53-.17.53h-.55l.45.33-.17.53ZM5.99,1.72l.45-.33.45.33-.17-.53.45-.33h-.55l-.17-.53-.17.53h-.55l.45.33-.17.53ZM4.9,2.33l-.17.53.45-.33.45.33-.17-.53.45-.33h-.55l-.17-.53-.17.53h-.55l.45.33ZM8.7,1.72l.45-.33.45.33-.17-.53.45-.33h-.55l-.17-.53-.17.53h-.55l.45.33-.17.53ZM7.61,2.33l-.17.53.45-.33.45.33-.17-.53.45-.33h-.55l-.17-.53-.17.53h-.55l.45.33ZM3.19,9.09h-.55l-.17-.53-.17.53h-.55l.45.33-.17.53.45-.33.45.33-.17-.53.45-.33ZM.57,8.62l.45-.33.45.33-.17-.53.45-.33h-.55l-.17-.53-.17.53H.29l.45.33-.17.53ZM1.19,10.06l-.17-.53-.17.53H.29l.45.33-.17.53.45-.33.45.33-.17-.53.45-.33h-.55ZM.57,6.32l.45-.33.45.33-.17-.53.45-.33h-.55l-.17-.53-.17.53H.29l.45.33-.17.53ZM.57,4.02l.45-.33.45.33-.17-.53.45-.33h-.55l-.17-.53-.17.53H.29l.45.33-.17.53ZM.57,1.72l.45-.33.45.33-.17-.53.45-.33h-.55l-.17-.53-.17.53H.29l.45.33-.17.53Z"/>
</svg>