<?xml version="1.0" encoding="UTF-8"?>
<svg id="FLAGS" xmlns="http://www.w3.org/2000/svg" viewBox="0 0 31 21">
  <defs>
    <style>
      .cls-1 {
        fill: #ffb612;
      }

      .cls-2 {
        fill: #fff;
      }

      .cls-3 {
        fill: #007a4d;
      }

      .cls-4 {
        fill: #002395;
      }

      .cls-5 {
        fill: #de3831;
      }
    </style>
  </defs>
  <polygon class="cls-5" points="31.32 7.1 31.32 -.05 4.9 -.05 13.24 7.1 31.32 7.1"/>
  <polygon class="cls-4" points="4.9 21.05 31.32 21.05 31.32 13.9 13.24 13.9 4.9 21.05"/>
  <polygon points="-.32 4.42 -.32 16.58 6.77 10.5 -.32 4.42"/>
  <polygon class="cls-1" points="9.3 10.5 -.32 2.25 -.32 4.42 6.77 10.5 -.32 16.58 -.32 18.75 9.3 10.5"/>
  <polygon class="cls-2" points="12.63 8.75 31.32 8.75 31.32 7.1 13.24 7.1 4.9 -.05 2.37 -.05 12.63 8.75"/>
  <polygon class="cls-2" points="12.63 12.25 2.37 21.05 4.9 21.05 13.24 13.9 31.32 13.9 31.32 12.25 12.63 12.25"/>
  <polygon class="cls-3" points="2.37 -.05 -.32 -.05 -.32 2.25 9.3 10.5 -.32 18.75 -.32 21.05 2.37 21.05 12.63 12.25 31.32 12.25 31.32 8.75 12.63 8.75 2.37 -.05"/>
</svg>